<svg width="561" height="199" viewBox="0 0 561 199" fill="none" xmlns="http://www.w3.org/2000/svg">
<path fill-rule="evenodd" clip-rule="evenodd" d="M191.376 135.345C188.934 147.528 183.353 158.282 174.818 166.343C148.026 191.647 96.4099 186.374 59.2877 147.069C22.1654 107.764 19.8468 55.9308 46.6383 30.6272C73.4298 5.3235 125.046 10.5966 162.168 49.9016C163.626 51.4448 165.03 53.0074 166.38 54.5869H179.628C176.604 50.5336 173.295 46.5884 169.703 42.7854C130.377 1.14713 72.0931 -7.66966 39.5221 23.0925C6.95113 53.8547 12.4271 112.547 51.753 154.185C91.079 195.823 149.363 204.64 181.934 173.878C192.822 163.595 199.458 150.19 202 135.345H191.376Z" fill="#003D89"/>
<path d="M445.537 189.662C445.299 189.421 446.015 183.569 447.129 176.756L449.118 164.33H452.46H455.803L458.031 170.743C459.304 174.27 460.497 176.836 460.816 176.515C461.054 176.194 462.328 173.309 463.521 170.182L465.67 164.33H468.773C472.274 164.33 471.797 163.208 474.264 177.156C476.492 190.062 476.492 190.143 472.911 189.822L469.887 189.581L468.773 182.367C467.898 177.156 467.42 175.633 466.943 176.756C466.625 177.637 465.272 180.924 464.078 183.97C460.975 191.746 459.861 191.666 456.757 183.168C455.325 179.401 453.972 176.515 453.734 176.756C453.495 176.996 452.858 179.962 452.46 183.409L451.585 189.581L448.8 189.822C447.209 189.982 445.776 189.902 445.537 189.662Z" fill="#003D89"/>
<path d="M480.391 189.421C480.152 189.02 482.062 183.409 484.529 176.756L489.144 164.731L492.725 164.491L496.386 164.25L498.534 170.102C499.807 173.309 501.797 178.679 503.07 181.966C504.263 185.253 505.298 188.379 505.298 188.94C505.298 189.581 504.184 189.982 502.195 189.982C499.489 189.982 499.012 189.662 498.216 187.577C497.42 185.253 497.261 185.173 492.805 185.173C488.349 185.173 488.11 185.253 487.235 187.577C486.439 189.662 485.882 189.982 483.495 189.982C481.983 189.982 480.55 189.742 480.391 189.421ZM494.317 176.275L492.964 172.186L492.089 174.431C489.781 180.202 489.86 180.363 492.805 180.363H495.59L494.317 176.275Z" fill="#003D89"/>
<path d="M510.868 177.156V164.17L517.552 164.411C524.794 164.731 527.022 165.773 530.284 170.262C532.751 173.469 532.592 180.683 530.125 184.211C527.499 187.898 524.237 189.261 517.075 189.742L510.868 190.223V177.156ZM520.894 183.569C523.122 183.569 525.191 180.443 525.191 177.156C525.191 173.309 522.406 169.942 519.223 169.942C517.234 169.942 517.234 169.942 517.234 177.236C517.234 183.569 517.393 184.451 518.507 184.05C519.223 183.81 520.258 183.569 520.894 183.569Z" fill="#003D89"/>
<path d="M538.48 189.421C538.162 189.181 537.923 183.409 537.923 176.595V164.33H545.085H552.247V167.136C552.247 169.942 552.247 169.942 548.666 169.942C545.403 169.942 545.085 170.102 545.085 171.946C545.085 173.789 545.403 173.95 548.666 173.95C552.247 173.95 552.247 173.95 552.247 176.755C552.247 179.561 552.247 179.561 548.666 179.561C545.244 179.561 545.085 179.641 545.085 181.966C545.085 184.291 545.244 184.371 548.666 184.371C552.247 184.371 552.247 184.371 552.247 187.177V189.982H545.642C541.982 189.982 538.719 189.742 538.48 189.421Z" fill="#003D89"/>
<path d="M409.411 98.5976C409.411 48.9774 409.491 28.6964 409.571 53.4664C409.73 78.3166 409.73 118.879 409.571 143.649C409.491 168.499 409.411 148.218 409.411 98.5976Z" stroke="#003D89" stroke-width="2" stroke-linejoin="round"/>
<path d="M447.368 152.707L444.821 151.585L446.174 148.779C447.447 146.053 447.606 145.973 449.277 147.096C451.744 148.699 455.643 148.619 456.28 147.015C456.996 145.172 455.723 143.889 452.142 142.847C448.084 141.564 446.254 139.48 446.254 135.793C446.254 130.101 450.63 126.815 456.996 127.777C462.089 128.578 462.726 129.219 461.214 132.105C460.1 134.35 459.781 134.51 457.712 133.709C456.439 133.228 454.768 133.067 454.052 133.308C451.744 134.19 452.938 136.434 456.36 137.636C461.054 139.24 463.123 141.564 463.123 145.252C463.123 147.015 462.726 149.1 462.328 149.981C460.338 153.669 452.699 155.032 447.368 152.707Z" fill="#003D89"/>
<path d="M497.659 152.627C493.998 150.863 493.123 148.218 492.725 137.717L492.407 128.258H496.067H499.728V137.476C499.728 145.893 499.887 146.695 501.399 147.496C503.786 148.859 506.332 148.138 507.446 145.893C508.083 144.691 508.481 140.763 508.481 136.113V128.258H511.664H514.847V136.514C514.847 146.935 513.892 150.302 510.629 152.306C507.526 154.23 501.16 154.39 497.659 152.627Z" fill="#003D89"/>
<path d="M465.51 152.306C465.51 151.905 466.545 148.939 467.818 145.733C469.012 142.526 471.001 137.236 472.274 134.029L474.423 128.177L478.083 128.418L481.744 128.658L484.051 134.67C485.325 137.957 487.393 143.488 488.667 146.935L490.895 153.108H487.393C484.29 153.108 483.813 152.867 483.335 151.104C482.858 149.26 482.46 149.1 478.163 149.1C473.866 149.1 473.388 149.26 472.672 151.104C472.036 152.787 471.399 153.108 468.693 153.108C466.943 153.108 465.51 152.787 465.51 152.306ZM480.63 143.488C480.63 143.087 480.073 141.244 479.277 139.4L478.004 136.033L476.651 139.56C475.935 141.484 475.457 143.328 475.616 143.729C476.094 144.611 480.63 144.45 480.63 143.488Z" fill="#003D89"/>
<path d="M519.621 140.683V128.258H526.305C531.876 128.258 533.308 128.578 535.536 130.101C541.663 134.27 543.414 140.522 540.151 146.615C537.446 151.665 534.342 153.108 526.226 153.108H519.621V140.683ZM532.91 145.733C536.809 142.045 534.024 133.869 528.772 133.869C526.783 133.869 526.783 133.949 526.783 140.683V147.496H528.931C530.125 147.496 531.876 146.695 532.91 145.733Z" fill="#003D89"/>
<path d="M545.881 140.683V128.258H549.064H552.247V140.683V153.108H549.064H545.881V140.683Z" fill="#003D89"/>
<path d="M74.8 120.081C74.8 119.921 79.0174 109.58 84.1898 96.9944L93.5 74.1483L98.354 73.9078L103.208 73.6673L112.041 96.3531C116.974 108.858 120.953 119.36 120.953 119.68C120.953 120.001 119.282 120.241 117.293 120.081L113.632 119.841L111.404 114.229L109.176 108.618L98.1949 108.377L87.134 108.137L84.8264 114.229L82.5187 120.241H78.6991C76.5506 120.241 74.8 120.161 74.8 120.081ZM104.561 96.4333C100.025 83.928 98.5132 80.1604 98.2745 80.1604C98.0357 80.1604 89.9191 100.842 89.9191 101.483C89.9191 101.644 93.6591 101.804 98.2745 101.804H106.55L104.561 96.4333Z" fill="#003D89"/>
<path d="M126.523 96.9142V73.5871L141.086 73.9077C153.817 74.1482 155.966 74.3086 158.672 75.8316C166.788 80.0802 166.868 93.6276 158.751 97.5555L155.966 98.8381L158.353 100.281C159.626 101.083 161.218 102.766 161.854 104.129C163.048 106.373 163.366 107.977 164.242 116.474L164.719 120.241H161.218C157.319 120.241 156.762 119.52 156.762 114.79C156.762 106.694 153.34 102.285 146.178 100.922C143.632 100.522 139.892 100.201 137.823 100.361L134.083 100.602L133.844 110.462L133.606 120.241H130.104H126.523V96.9142ZM154.932 92.6656C156.762 91.0624 157.16 90.1005 157.16 87.0543C157.16 80.962 155.886 80.2405 144.03 80.0802L134.083 80.0001L133.844 87.2948L133.606 94.5895H143.154C152.067 94.5895 152.863 94.4292 154.932 92.6656Z" fill="#003D89"/>
<path d="M172.677 96.9944V73.6673L178.088 73.9078L183.419 74.1483L190.342 91.3831C194.082 100.842 197.504 109.099 197.902 109.74C198.379 110.542 200.687 105.251 205.382 92.5054L212.066 74.1483L217.477 73.9078L222.809 73.6673V96.9944V120.322L219.466 120.081L216.045 119.841V101.163C216.045 90.9823 215.886 82.5653 215.647 82.5653C215.408 82.5653 212.225 90.9823 208.485 101.243L201.721 119.841L198.061 120.081L194.48 120.322L187.159 100.842L179.918 81.3628L179.838 100.842V120.241H176.257H172.677V96.9944Z" fill="#003D89"/>
<path d="M243.737 119.52C233.949 117.115 228.538 106.213 230.527 92.9863C232.198 82.2446 236.814 76.3928 245.169 74.6292C247.317 74.1482 252.888 73.7474 257.503 73.7474H265.858L265.62 76.7936L265.381 79.7596L254.957 80.1604C245.885 80.481 244.214 80.8017 242.702 82.1644C240.394 84.2487 239.042 87.0543 238.485 90.8219L238.007 93.7879H251.933H265.858L265.62 96.6737L265.381 99.5596L251.853 99.6397L238.326 99.8001L238.564 102.526C238.644 104.049 239.36 106.454 240.076 107.977C242.225 112.626 244.214 113.347 255.354 113.828L265.381 114.229V117.035V119.841L255.832 120.001C250.58 120.081 245.169 119.841 243.737 119.52Z" fill="#003D89"/>
<path d="M284.717 100.121L284.479 79.9199L276.76 80.0802L268.962 80.2406V77.0341V73.7474H288.537H308.033L307.794 76.7936L307.555 79.7596L299.996 79.8397L292.436 80.0001L292.197 100.121L292.038 120.241H288.457H284.877L284.717 100.121Z" fill="#003D89"/>
<path d="M302.383 120.081C302.383 119.921 306.6 109.58 311.773 96.9944L321.163 74.1483L325.937 73.9078L330.791 73.6673L339.305 95.3912C344.08 107.335 348.138 117.837 348.297 118.718C348.695 120.161 348.377 120.322 344.955 120.081L341.215 119.841L338.987 114.229L336.759 108.618H325.778H314.717L312.409 114.47L310.022 120.241H306.202C304.134 120.241 302.383 120.161 302.383 120.081ZM331.905 95.6317C326.971 82.3248 326.096 80.0803 325.778 80.4009C325.46 80.7216 317.502 100.922 317.502 101.483C317.502 101.644 321.242 101.804 325.857 101.804H334.133L331.905 95.6317Z" fill="#003D89"/>
<path d="M364.212 119.119C359.756 117.917 356.096 114.71 354.743 110.702C354.027 108.778 353.708 102.365 353.708 90.9823V74.1483L357.528 73.9078L361.268 73.6673V90.5013C361.268 101.884 361.586 108.057 362.223 109.42C363.735 112.866 366.679 113.828 375.194 113.828H382.753V117.035V120.241L375.432 120.161C371.374 120.161 366.281 119.68 364.212 119.119Z" fill="#003D89"/>
<path d="M444.821 62.9255V8.81622H498.534H552.247V62.9255V117.035H498.534H444.821V62.9255ZM505.457 78.8778L505.696 55.9515L512.062 63.7272C515.483 67.9757 520.258 74.2284 522.566 77.515C524.873 80.8818 526.863 83.7676 527.101 83.928C527.26 84.0883 528.374 82.4851 529.568 80.4008C530.841 78.3166 532.274 75.8316 532.831 74.9498C533.786 73.4268 533.547 72.7053 530.205 67.7353C528.215 64.6089 523.918 58.9976 520.656 55.1498C516.836 50.5004 515.245 48.0956 516.12 48.0956C518.268 48.0956 526.465 50.4203 530.443 52.1037C532.512 52.9855 534.263 53.6268 534.422 53.4664C534.581 53.3061 534.104 51.2219 533.308 48.817C532.035 45.0494 531.319 44.2478 527.897 42.3239C525.749 41.1215 522.088 39.5984 519.621 38.877C517.234 38.1555 514.767 37.3539 514.131 37.1936C512.539 36.7126 514.29 34.8689 518.507 32.7846L522.088 31.1012L519.462 29.498C515.881 27.2535 511.823 26.8527 508.163 28.3757C504.025 30.1393 503.706 30.0591 503.706 27.2535V24.8486H498.932C494.237 24.8486 494.078 24.9288 493.68 27.2535C493.043 30.0591 493.282 29.979 489.622 28.4559C488.11 27.8146 485.723 27.2535 484.449 27.2535C482.062 27.2535 475.855 30.0591 475.855 31.1012C475.855 31.4219 477.049 32.1433 478.481 32.7045C479.834 33.2656 481.903 34.3879 482.937 35.1895L484.847 36.7126L480.152 38.0753C477.606 38.7968 473.309 40.4802 470.603 41.7628C465.988 44.0875 465.67 44.4081 464.397 48.5765C463.601 51.0616 463.203 53.2259 463.362 53.4664C463.601 53.6268 464.794 53.3061 466.068 52.6648C469.33 50.9012 479.516 47.9353 481.028 48.2559C481.903 48.4162 480.709 50.3401 476.731 55.23C473.627 58.9174 469.489 64.4486 467.42 67.4948L463.68 73.1061L465.511 76.3927C466.545 78.2365 468.057 80.8017 468.932 82.0041L470.444 84.2486L474.662 77.996C477.049 74.549 481.744 68.2964 485.166 64.128L491.372 56.5126L491.611 79.1984L491.77 101.804H498.534H505.298L505.457 78.8778Z" fill="#003D89"/>
</svg>
